<svg xmlns="http://www.w3.org/2000/svg" xmlns:xlink="http://www.w3.org/1999/xlink" version="1.1" x="0px" y="0px" viewBox="0 0 100 125" enable-background="new 0 0 100 100" xml:space="preserve"><g><g><path d="M71.103,33.485c0.842-0.716,0.943-1.979,0.227-2.819s-1.979-0.943-2.82-0.226l-3.859,3.288    c-4.338-2.538-9.311-4.37-14.65-4.37c-17.074,0-30.465,18.692-31.027,19.488c-0.488,0.691-0.488,1.615,0,2.307    c0.314,0.446,4.664,6.503,11.422,11.749l-2.588,2.204c-0.842,0.716-0.943,1.979-0.227,2.819c0.396,0.464,0.959,0.703,1.523,0.703    c0.459,0,0.92-0.157,1.297-0.478l3.355-2.857c0.062,0.041,3.266-2.705,3.213-2.737L71.103,33.485z M42.001,50c0-4.411,3.588-8,8-8    c1.377,0,2.672,0.35,3.803,0.964l-11.35,9.666C42.165,51.805,42.001,50.922,42.001,50z M23.118,50    c3.121-3.946,14.156-16.642,26.881-16.642c4.033,0,7.895,1.278,11.389,3.146l-4.416,3.762C55.005,38.849,52.606,38,50.001,38    c-6.617,0-12,5.383-12,12c0,1.92,0.465,3.73,1.271,5.34l-5.742,4.89C28.505,56.463,24.741,52.051,23.118,50z"/><path d="M50.001,58c-0.578,0-1.143-0.065-1.686-0.183l-3.506,2.985C46.384,61.562,48.14,62,50.001,62c6.617,0,12-5.383,12-12    c0-1.186-0.18-2.329-0.502-3.411l-3.52,2.998c0.008,0.138,0.021,0.274,0.021,0.413C58.001,54.411,54.413,58,50.001,58z"/><path d="M81.028,48.846c-0.289-0.41-3.992-5.572-9.844-10.48l-3.084,2.678c4.207,3.444,7.34,7.135,8.781,8.957    c-3.113,3.946-14.127,16.641-26.883,16.641c-3.152,0-6.199-0.781-9.051-2.013l-3.314,2.879c3.77,1.873,7.941,3.133,12.365,3.133    c17.076,0,30.467-18.693,31.029-19.489C81.517,50.461,81.517,49.538,81.028,48.846z"/></g></g><text x="0" y="115" fill="#000000" font-size="5px" font-weight="bold" font-family="'Helvetica Neue', Helvetica, Arial-Unicode, Arial, Sans-serif"> </text><text x="0" y="120" fill="#000000" font-size="5px" font-weight="bold" font-family="'Helvetica Neue', Helvetica, Arial-Unicode, Arial, Sans-serif"></text></svg>