<svg xmlns="http://www.w3.org/2000/svg" xmlns:xlink="http://www.w3.org/1999/xlink" version="1.1" x="0px" y="0px" viewBox="0 0 100 125" enable-background="new 0 0 100 100" xml:space="preserve"><g><g><path d="M81.027,48.846C80.467,48.05,67.074,29.358,50,29.358S19.533,48.05,18.973,48.846c-0.488,0.691-0.488,1.615,0,2.307    C19.533,51.949,32.926,70.642,50,70.642s30.467-18.693,31.027-19.489C81.516,50.461,81.516,49.538,81.027,48.846z M50,66.642    c-12.727,0-23.76-12.696-26.881-16.643C26.24,46.054,37.273,33.358,50,33.358S73.76,46.054,76.881,50    C73.76,53.946,62.727,66.642,50,66.642z"/><path d="M50.002,38C43.385,38,38,43.383,38,50c0,6.617,5.385,12,12.002,12C56.617,62,62,56.617,62,50    C62,43.383,56.617,38,50.002,38z M50.002,58C45.59,58,42,54.411,42,50c0-4.411,3.59-8,8.002-8C54.412,42,58,45.588,58,50    C58,54.411,54.412,58,50.002,58z"/></g></g><text x="0" y="115" fill="#000000" font-size="5px" font-weight="bold" font-family="'Helvetica Neue', Helvetica, Arial-Unicode, Arial, Sans-serif"></text><text x="0" y="120" fill="#000000" font-size="5px" font-weight="bold" font-family="'Helvetica Neue', Helvetica, Arial-Unicode, Arial, Sans-serif"></text></svg>