<svg width="24" height="24" viewBox="0 0 24 24" fill="none" xmlns="http://www.w3.org/2000/svg">
<path d="M20.9999 12.4023C20.9999 11.7969 20.9463 11.2222 20.8543 10.6628H12.1953V14.1188H17.1532C16.9309 15.2529 16.2796 16.2107 15.3141 16.8621V19.1609H18.2719C20.0037 17.5594 20.9999 15.1992 20.9999 12.4023Z" fill="#4285F4"/>
<path d="M12.1952 21.3908C14.6779 21.3908 16.7546 20.5632 18.2718 19.1609L15.3139 16.8621C14.4864 17.4138 13.4366 17.751 12.1952 17.751C9.79671 17.751 7.76606 16.1341 7.03809 13.9502H3.98828V16.318C5.49786 19.3218 8.60131 21.3908 12.1952 21.3908Z" fill="#34A853"/>
<path d="M7.03831 13.9502C6.84674 13.3985 6.74712 12.8084 6.74712 12.1954C6.74712 11.5824 6.8544 10.9924 7.03831 10.4406V8.07281H3.9885C3.36015 9.31419 3 10.7088 3 12.1954C3 13.682 3.36015 15.0766 3.9885 16.318L7.03831 13.9502Z" fill="#FBBC05"/>
<path d="M12.1952 6.63984C13.5515 6.63984 14.7622 7.10728 15.7201 8.01916L18.3408 5.39847C16.7546 3.91188 14.6779 3 12.1952 3C8.60131 3 5.49786 5.06897 3.98828 8.0728L7.03809 10.4406C7.76606 8.2567 9.79671 6.63984 12.1952 6.63984Z" fill="#EA4335"/>
</svg>
