<?xml version="1.0" encoding="utf-8"?>
<!-- Generator: Adobe Illustrator 27.5.0, SVG Export Plug-In . SVG Version: 6.00 Build 0)  -->
<svg version="1.1" id="레이어_1" xmlns="http://www.w3.org/2000/svg" xmlns:xlink="http://www.w3.org/1999/xlink" x="0px"
	 y="0px" viewBox="0 0 48 24" style="enable-background:new 0 0 48 24;" xml:space="preserve">
<style type="text/css">
	.st0{fill:none;stroke:#767676;stroke-width:2;stroke-linecap:round;stroke-linejoin:round;}
	.st1{fill:#036635;stroke:#036635;stroke-width:2;stroke-linecap:round;stroke-linejoin:round;}
	.st2{fill:#FFFFFF;}
	.st3{fill:none;stroke:#036635;stroke-width:2;stroke-linecap:round;stroke-linejoin:round;}
</style>
<g>
	<path class="st0" d="M3,9l9-7l9,7v11c0,0.5-0.2,1-0.6,1.4C20,21.8,19.5,22,19,22H5c-0.5,0-1-0.2-1.4-0.6C3.2,21,3,20.5,3,20V9z"/>
	<path class="st0" d="M9,21v-9h6v9"/>
</g>
<g>
	<path class="st1" d="M27,9l9-7l9,7v11c0,0.5-0.2,1-0.6,1.4C44,21.8,43.5,22,43,22H29c-0.5,0-1-0.2-1.4-0.6C27.2,21,27,20.5,27,20V9
		z"/>
	<path class="st2" d="M32,21V11h8v10"/>
	<path class="st3" d="M32,21V11h8v10"/>
</g>
</svg>
