<svg width="24" height="20" viewBox="0 0 24 20" fill="none" xmlns="http://www.w3.org/2000/svg">
<path d="M12.8727 17.1875C13.7818 16.6667 14.6727 16.276 15.5455 16.0156C16.4182 15.7552 17.3455 15.625 18.3273 15.625C19.0182 15.625 19.7318 15.6875 20.4682 15.8125C21.2045 15.9375 21.8364 16.1042 22.3636 16.3125V2.90625C21.7455 2.55208 21.0909 2.29167 20.4 2.125C19.7091 1.95833 19.0182 1.875 18.3273 1.875C17.3455 1.875 16.3955 2.04688 15.4773 2.39062C14.5591 2.73438 13.6909 3.21875 12.8727 3.84375V17.1875ZM12.0545 20C11.1273 19.2083 10.1182 18.599 9.02727 18.1719C7.93636 17.7448 6.81818 17.5312 5.67273 17.5312C5 17.5312 4.34545 17.625 3.70909 17.8125C3.07273 18 2.43636 18.2292 1.8 18.5C1.38182 18.7292 0.977273 18.6979 0.586364 18.4062C0.195455 18.1146 0 17.6979 0 17.1562V2.6875C0 2.375 0.0636364 2.08854 0.190909 1.82812C0.318182 1.56771 0.509091 1.36458 0.763636 1.21875C1.52727 0.802083 2.32273 0.494792 3.15 0.296875C3.97727 0.0989583 4.81818 0 5.67273 0C6.81818 0 7.93182 0.177083 9.01364 0.53125C10.0955 0.885417 11.1091 1.42708 12.0545 2.15625C12.9818 1.42708 13.9773 0.885417 15.0409 0.53125C16.1045 0.177083 17.2 0 18.3273 0C19.1818 0 20.0182 0.0989583 20.8364 0.296875C21.6545 0.494792 22.4455 0.802083 23.2091 1.21875C23.4636 1.36458 23.6591 1.56771 23.7955 1.82812C23.9318 2.08854 24 2.375 24 2.6875V17.1562C24 17.7396 23.7955 18.1823 23.3864 18.4844C22.9773 18.7865 22.5727 18.7917 22.1727 18.5C21.5545 18.2083 20.9273 17.974 20.2909 17.7969C19.6545 17.6198 19 17.5312 18.3273 17.5312C17.1818 17.5312 16.0818 17.75 15.0273 18.1875C13.9727 18.625 12.9818 19.2292 12.0545 20Z" fill="#036625"/>
</svg>
