<svg width="20" height="20" viewBox="0 0 20 20" fill="none" xmlns="http://www.w3.org/2000/svg">
<path d="M8.93828 17.5646L8.85039 17.4804L2.69102 11.5272C1.61172 10.4844 1 9.02082 1 7.4877V7.36695C1 4.79102 2.75781 2.58099 5.19062 2.098C6.57578 1.81992 7.99258 2.15289 9.12109 2.97982C9.4375 3.21399 9.73281 3.48476 10 3.79577C10.1477 3.62014 10.3059 3.45915 10.4746 3.30913C10.6047 3.19204 10.7383 3.08227 10.8789 2.97982C12.0074 2.15289 13.4242 1.81992 14.8094 2.09434C17.2422 2.57733 19 4.79102 19 7.36695V7.4877C19 9.02082 18.3883 10.4844 17.309 11.5272L11.1496 17.4804L11.0617 17.5646C10.7734 17.8427 10.3938 18 10 18C9.60625 18 9.22656 17.8463 8.93828 17.5646ZM9.40586 5.7387C9.3918 5.72772 9.38125 5.71309 9.3707 5.69845L8.74492 4.96665L8.74141 4.96299C7.9293 4.01531 6.70234 3.58355 5.50703 3.82139C3.86875 4.14704 2.6875 5.63259 2.6875 7.36695V7.4877C2.6875 8.53052 3.10586 9.52942 3.84063 10.2393L10 16.1925L16.1594 10.2393C16.8941 9.52942 17.3125 8.53052 17.3125 7.4877V7.36695C17.3125 5.63625 16.1312 4.14704 14.4965 3.82139C13.3012 3.58355 12.0707 4.01897 11.2621 4.96299C11.2621 4.96299 11.2621 4.96299 11.2586 4.96665C11.2551 4.97031 11.2586 4.96665 11.2551 4.97031L10.6293 5.70211C10.6187 5.71675 10.6047 5.72773 10.5941 5.74236C10.4359 5.90702 10.2215 5.99849 10 5.99849C9.77852 5.99849 9.56406 5.90702 9.40586 5.74236V5.7387Z" fill="#767676"/>
</svg>
