<svg width="24" height="20" viewBox="0 0 24 20" fill="none" xmlns="http://www.w3.org/2000/svg">
<path d="M5.67273 15.625C6.64665 15.625 7.59468 15.7552 8.51681 16.0156C9.43894 16.276 10.3455 16.6667 11.2364 17.1875V3.84375C10.4182 3.21875 9.53074 2.73438 8.57403 2.39062C7.61734 2.04688 6.65024 1.875 5.67273 1.875C4.98182 1.875 4.30455 1.97396 3.64091 2.17188C2.97727 2.36979 2.30909 2.61458 1.63636 2.90625V16.4688C2.2 16.1771 2.84091 15.9635 3.55909 15.8281C4.27727 15.6927 4.98182 15.625 5.67273 15.625ZM12.8727 17.1875C13.7818 16.6667 14.6727 16.276 15.5455 16.0156C16.4182 15.7552 17.3455 15.625 18.3273 15.625C19.0182 15.625 19.7318 15.6875 20.4682 15.8125C21.2045 15.9375 21.8364 16.1042 22.3636 16.3125V2.90625C21.7455 2.55208 21.0925 2.29167 20.4049 2.125C19.7172 1.95833 19.0246 1.875 18.3273 1.875C17.3455 1.875 16.3955 2.04688 15.4773 2.39062C14.5591 2.73438 13.6909 3.21875 12.8727 3.84375V17.1875ZM12.0545 20C11.1273 19.2083 10.1182 18.599 9.02727 18.1719C7.93636 17.7448 6.81818 17.5312 5.67273 17.5312C5.00842 17.5312 4.35598 17.625 3.71542 17.8125C3.07484 18 2.43636 18.2292 1.8 18.5C1.38 18.7292 0.975 18.6979 0.585 18.4062C0.195 18.1146 0 17.6979 0 17.1562V2.6875C0 2.375 0.0636364 2.08854 0.190909 1.82812C0.318182 1.56771 0.509091 1.36458 0.763636 1.21875C1.52727 0.802083 2.32177 0.494792 3.14714 0.296875C3.97248 0.0989583 4.81435 0 5.67273 0C6.81818 0 7.93182 0.177083 9.01364 0.53125C10.0955 0.885417 11.1091 1.42708 12.0545 2.15625C12.9818 1.42708 13.9773 0.885417 15.0409 0.53125C16.1045 0.177083 17.2 0 18.3273 0C19.1794 0 20.0152 0.0989583 20.8346 0.296875C21.6539 0.494792 22.4455 0.802083 23.2091 1.21875C23.4636 1.36458 23.6591 1.56771 23.7955 1.82812C23.9318 2.08854 24 2.375 24 2.6875V17.1562C24 17.7374 23.7955 18.1795 23.3864 18.4827C22.9773 18.7859 22.5727 18.7917 22.1727 18.5C21.5545 18.2083 20.9252 17.974 20.2846 17.7969C19.644 17.6198 18.9916 17.5312 18.3273 17.5312C17.1818 17.5312 16.0818 17.75 15.0273 18.1875C13.9727 18.625 12.9818 19.2292 12.0545 20Z" fill="#767676"/>
</svg>
