<?xml version="1.0" encoding="utf-8"?>
<!-- Generator: Adobe Illustrator 27.5.0, SVG Export Plug-In . SVG Version: 6.00 Build 0)  -->
<svg version="1.1" id="레이어_1" xmlns="http://www.w3.org/2000/svg" xmlns:xlink="http://www.w3.org/1999/xlink" x="0px"
	 y="0px" viewBox="0 0 48 24" style="enable-background:new 0 0 48 24;" xml:space="preserve">
<style type="text/css">
	.st0{fill:none;stroke:#767676;stroke-width:2;}
	.st1{fill:none;stroke:#767676;stroke-width:2;stroke-linecap:round;}
	.st2{fill:none;stroke:#036635;stroke-width:2;}
	.st3{fill:none;stroke:#036635;stroke-width:2;stroke-linecap:round;}
</style>
<path class="st0" d="M6,3h12c1.7,0,3,1.3,3,3v12c0,1.7-1.3,3-3,3H6c-1.7,0-3-1.3-3-3V6C3,4.3,4.3,3,6,3z"/>
<path class="st1" d="M12,8v8"/>
<path class="st1" d="M8,12h8"/>
<g>
	<path class="st2" d="M30,3h12c1.7,0,3,1.3,3,3v12c0,1.7-1.3,3-3,3H30c-1.7,0-3-1.3-3-3V6C27,4.3,28.3,3,30,3z"/>
	<path class="st3" d="M36,8v8"/>
	<path class="st3" d="M32,12h8"/>
</g>
</svg>
