<?xml version="1.0" encoding="utf-8"?>
<!-- Generator: Adobe Illustrator 27.5.0, SVG Export Plug-In . SVG Version: 6.00 Build 0)  -->
<svg version="1.1" id="레이어_1" xmlns="http://www.w3.org/2000/svg" xmlns:xlink="http://www.w3.org/1999/xlink" x="0px"
	 y="0px" viewBox="0 0 48 24" style="enable-background:new 0 0 48 24;" xml:space="preserve">
<style type="text/css">
	.st0{fill:none;stroke:#767676;stroke-width:2;stroke-linecap:round;}
	.st1{fill:none;stroke:#767676;stroke-width:2;stroke-linecap:round;stroke-linejoin:round;}
	.st2{fill:none;stroke:#036635;stroke-width:2;stroke-linecap:round;}
	.st3{fill:#036635;stroke:#036635;stroke-width:2;stroke-linecap:round;stroke-linejoin:round;}
</style>
<g>
	<path class="st0" d="M4,21.5h16"/>
	<g>
		<path class="st1" d="M20,21.5v-3c0-1.1-0.4-2.1-1.2-2.8c-0.8-0.8-1.8-1.2-2.8-1.2H8c-1.1,0-2.1,0.4-2.8,1.2
			C4.4,16.4,4,17.4,4,18.5v3"/>
		<path class="st1" d="M12,10.5c2.2,0,4-1.8,4-4s-1.8-4-4-4c-2.2,0-4,1.8-4,4S9.8,10.5,12,10.5z"/>
	</g>
</g>
<g>
	<path class="st2" d="M28,21.5h16"/>
	<g>
		<path class="st3" d="M44,21.5v-3c0-1.1-0.4-2.1-1.2-2.8c-0.8-0.8-1.8-1.2-2.8-1.2h-8c-1.1,0-2.1,0.4-2.8,1.2
			c-0.8,0.8-1.2,1.8-1.2,2.8v3"/>
		<path class="st3" d="M36,10.5c2.2,0,4-1.8,4-4s-1.8-4-4-4c-2.2,0-4,1.8-4,4S33.8,10.5,36,10.5z"/>
	</g>
</g>
</svg>
