<?xml version="1.0" encoding="utf-8"?>
<!-- Generator: Adobe Illustrator 27.5.0, SVG Export Plug-In . SVG Version: 6.00 Build 0)  -->
<svg version="1.1" id="레이어_1" xmlns="http://www.w3.org/2000/svg" xmlns:xlink="http://www.w3.org/1999/xlink" x="0px"
	 y="0px" viewBox="0 0 48 24" style="enable-background:new 0 0 48 24;" xml:space="preserve">
<style type="text/css">
	.st0{fill:#767676;}
	.st1{fill:#036625;}
</style>
<path class="st0" d="M5.7,17.6c1,0,1.9,0.1,2.8,0.4s1.8,0.7,2.7,1.2V5.9c-0.8-0.6-1.7-1.1-2.7-1.5c-1-0.3-1.9-0.5-2.9-0.5
	C5,3.9,4.3,4,3.6,4.2C3,4.4,2.3,4.6,1.6,4.9v13.6c0.6-0.3,1.2-0.5,1.9-0.6C4.3,17.7,5,17.6,5.7,17.6z M12.9,19.2
	c0.9-0.5,1.8-0.9,2.7-1.2c0.9-0.3,1.8-0.4,2.8-0.4c0.7,0,1.4,0.1,2.1,0.2s1.4,0.3,1.9,0.5V4.9c-0.6-0.4-1.3-0.6-2-0.8
	C19.7,4,19,3.9,18.3,3.9c-1,0-1.9,0.2-2.8,0.5c-0.9,0.3-1.8,0.8-2.6,1.5V19.2z M12.1,22c-0.9-0.8-1.9-1.4-3-1.8s-2.2-0.6-3.4-0.6
	c-0.7,0-1.3,0.1-2,0.3c-0.6,0.2-1.3,0.4-1.9,0.7c-0.4,0.2-0.8,0.2-1.2-0.1C0.2,20.1,0,19.7,0,19.2V4.7c0-0.3,0.1-0.6,0.2-0.9
	s0.3-0.5,0.6-0.6c0.8-0.4,1.6-0.7,2.4-0.9C4,2.1,4.8,2,5.7,2C6.8,2,7.9,2.2,9,2.6s2.1,0.9,3,1.6c1-0.7,2-1.3,3-1.6S17.2,2,18.3,2
	c0.9,0,1.7,0.1,2.5,0.3s1.6,0.5,2.4,0.9c0.3,0.1,0.4,0.3,0.6,0.6C23.9,4.1,24,4.4,24,4.7v14.5c0,0.6-0.2,1-0.6,1.3s-0.8,0.3-1.2,0
	c-0.6-0.3-1.2-0.5-1.9-0.7c-0.6-0.2-1.3-0.3-2-0.3c-1.1,0-2.2,0.2-3.3,0.7C14,20.6,13,21.3,12.1,22z"/>
<path class="st1" d="M36.9,19.2c0.9-0.5,1.8-0.9,2.7-1.2c0.9-0.3,1.8-0.4,2.8-0.4c0.7,0,1.4,0.1,2.1,0.2c0.7,0.1,1.4,0.3,1.9,0.5
	V4.9c-0.6-0.4-1.3-0.6-2-0.8C43.7,4,43,3.9,42.3,3.9c-1,0-1.9,0.2-2.9,0.5c-0.9,0.3-1.8,0.8-2.6,1.5V19.2z M36.1,22
	c-0.9-0.8-1.9-1.4-3-1.8c-1.1-0.4-2.2-0.6-3.4-0.6c-0.7,0-1.3,0.1-2,0.3c-0.6,0.2-1.3,0.4-1.9,0.7c-0.4,0.2-0.8,0.2-1.2-0.1
	c-0.4-0.3-0.6-0.7-0.6-1.2V4.7c0-0.3,0.1-0.6,0.2-0.9c0.1-0.3,0.3-0.5,0.6-0.6c0.8-0.4,1.6-0.7,2.4-0.9C28,2.1,28.8,2,29.7,2
	c1.1,0,2.3,0.2,3.3,0.5c1.1,0.4,2.1,0.9,3,1.6C37,3.4,38,2.9,39,2.5C40.1,2.2,41.2,2,42.3,2c0.9,0,1.7,0.1,2.5,0.3
	c0.8,0.2,1.6,0.5,2.4,0.9c0.3,0.1,0.5,0.3,0.6,0.6C47.9,4.1,48,4.4,48,4.7v14.5c0,0.6-0.2,1-0.6,1.3c-0.4,0.3-0.8,0.3-1.2,0
	c-0.6-0.3-1.2-0.5-1.9-0.7c-0.6-0.2-1.3-0.3-2-0.3c-1.1,0-2.2,0.2-3.3,0.7C38,20.6,37,21.2,36.1,22z"/>
</svg>
