<svg width="322" height="44" viewBox="0 0 322 44" fill="none" xmlns="http://www.w3.org/2000/svg">
<rect width="322" height="44" rx="22" fill="#036635"/>
<path d="M157.375 15.422H158.551V28.106H157.375V15.422ZM158.271 20.42H160.623V21.4H158.271V20.42ZM149.353 23.976H150.347C152.685 23.976 154.323 23.892 156.213 23.542L156.339 24.522C154.393 24.886 152.727 24.956 150.347 24.956H149.353V23.976ZM149.353 16.654H155.233V17.606H150.501V24.41H149.353V16.654ZM167.412 15.716C170.142 15.716 171.864 16.612 171.864 18.11C171.864 19.608 170.142 20.49 167.412 20.49C164.668 20.49 162.96 19.608 162.96 18.11C162.96 16.612 164.668 15.716 167.412 15.716ZM167.412 16.64C165.396 16.64 164.15 17.172 164.15 18.11C164.15 19.034 165.396 19.58 167.412 19.58C169.414 19.58 170.674 19.034 170.674 18.11C170.674 17.172 169.414 16.64 167.412 16.64ZM163.086 23.752H171.724V27.924H163.086V23.752ZM170.59 24.69H164.234V26.986H170.59V24.69ZM161.686 21.582H173.124V22.52H161.686V21.582Z" fill="white"/>
</svg>
