<svg width="18" height="14" viewBox="0 0 18 14" fill="none" xmlns="http://www.w3.org/2000/svg">
<path d="M2.25 1.6875C1.94062 1.6875 1.6875 1.94062 1.6875 2.25V3.02695L7.75195 8.00508C8.47969 8.60273 9.52383 8.60273 10.2516 8.00508L16.3125 3.02695V2.25C16.3125 1.94062 16.0594 1.6875 15.75 1.6875H2.25ZM1.6875 5.21016V11.25C1.6875 11.5594 1.94062 11.8125 2.25 11.8125H15.75C16.0594 11.8125 16.3125 11.5594 16.3125 11.25V5.21016L11.3203 9.30937C9.97031 10.4168 8.02617 10.4168 6.67969 9.30937L1.6875 5.21016ZM0 2.25C0 1.00898 1.00898 0 2.25 0H15.75C16.991 0 18 1.00898 18 2.25V11.25C18 12.491 16.991 13.5 15.75 13.5H2.25C1.00898 13.5 0 12.491 0 11.25V2.25Z" fill="#767676"/>
</svg>
