<?xml version="1.0" encoding="utf-8"?>
<!-- Generator: Adobe Illustrator 27.5.0, SVG Export Plug-In . SVG Version: 6.00 Build 0)  -->
<svg version="1.1" id="레이어_1" xmlns="http://www.w3.org/2000/svg" xmlns:xlink="http://www.w3.org/1999/xlink" x="0px"
	 y="0px" viewBox="0 0 48 24" style="enable-background:new 0 0 48 24;" xml:space="preserve">
<style type="text/css">
	.st0{fill:none;stroke:#767676;stroke-width:2;stroke-linecap:round;stroke-linejoin:round;}
	.st1{fill:#036635;stroke:#036635;stroke-width:2;stroke-linecap:round;stroke-linejoin:round;}
</style>
<path class="st0" d="M21,11.5c0,1.3-0.3,2.6-0.9,3.8c-0.7,1.4-1.8,2.6-3.1,3.4c-1.3,0.8-2.9,1.3-4.5,1.3c-1.3,0-2.6-0.3-3.8-0.9
	L3,21l1.9-5.7C4.3,14.1,4,12.8,4,11.5C4,9.9,4.4,8.4,5.3,7s2-2.4,3.4-3.1C9.9,3.3,11.2,3,12.5,3H13c2.1,0.1,4.1,1,5.5,2.5
	C20,6.9,20.9,8.9,21,11V11.5z"/>
<path class="st1" d="M45,11.5c0,1.3-0.3,2.6-0.9,3.8c-0.7,1.4-1.8,2.6-3.1,3.4c-1.3,0.8-2.9,1.3-4.5,1.3c-1.3,0-2.6-0.3-3.8-0.9
	L27,21l1.9-5.7c-0.6-1.2-0.9-2.5-0.9-3.8c0-1.6,0.4-3.1,1.3-4.5s2-2.4,3.4-3.1C33.9,3.3,35.2,3,36.5,3H37c2.1,0.1,4.1,1,5.5,2.5
	C44,6.9,44.9,8.9,45,11V11.5z"/>
</svg>
